# xmcd
#
# Track frame offsets:
#	150
#	15259
#	29462
#	46058
#	60073
#	74335
#	88448
#	102561
#	117412
#	130097
#	146648
#	160910
#
# Disc length: 2353 seconds
#
# Revision: 0
# Processed by: cddbd v1.5.2PL0 Copyright (c) Steve Scherf et al.
# Submitted via: EasyCDDAExtractor 12.0.1.1
#
DISCID=9e092f0c
DTITLE=Victor e Leo - Borboletas
DYEAR=1900
DGENRE=
TTITLE0=Borboletas
TTITLE1=Você Sabia
TTITLE2=Deus e eu no Sertão
TTITLE3=Tem Que Ser Você
TTITLE4=Lado Errado
TTITLE5=Timidez
TTITLE6=Tanta Solidão
TTITLE7=Nada Normal
TTITLE8=Sem Trânsito, Sem Avião
TTITLE9=Luz, Paixão, Rodeio
TTITLE10=Noite Estelar
TTITLE11=Razão do meu Astral
EXTD=
EXTT0=
EXTT1=
EXTT2=
EXTT3=
EXTT4=
EXTT5=
EXTT6=
EXTT7=
EXTT8=
EXTT9=
EXTT10=
EXTT11=
PLAYORDER=
